<svg width="21" height="22" viewBox="0 0 21 22" fill="none" xmlns="http://www.w3.org/2000/svg">
  <path
    d="M16.1065 4.133C15.8573 4.133 15.6137 4.2069 15.4065 4.34535C15.1993 4.4838 15.0378 4.68058 14.9424 4.91082C14.8471 5.14105 14.8221 5.3944 14.8707 5.63881C14.9193 5.88323 15.0393 6.10774 15.2156 6.28395C15.3918 6.46017 15.6163 6.58017 15.8607 6.62879C16.1051 6.67741 16.3585 6.65245 16.5887 6.55709C16.8189 6.46172 17.0157 6.30022 17.1542 6.09302C17.2926 5.88581 17.3665 5.6422 17.3665 5.393C17.3665 5.05883 17.2338 4.73834 16.9975 4.50205C16.7612 4.26575 16.4407 4.133 16.1065 4.133ZM20.9365 6.674C20.9161 5.80281 20.7529 4.94087 20.4535 4.1225C20.1865 3.42229 19.771 2.78824 19.2355 2.264C18.7156 1.7258 18.08 1.31289 17.377 1.0565C16.5608 0.747969 15.6979 0.58107 14.8255 0.563C13.7125 0.5 13.3555 0.5 10.4995 0.5C7.64351 0.5 7.28651 0.5 6.17351 0.563C5.30112 0.58107 4.43822 0.747969 3.62201 1.0565C2.92027 1.31548 2.28529 1.72804 1.76351 2.264C1.22531 2.78394 0.812397 3.41946 0.556012 4.1225C0.247481 4.93871 0.0805822 5.80161 0.0625117 6.674C-0.00048834 7.787 -0.000488281 8.144 -0.000488281 11C-0.000488281 13.856 -0.00048834 14.213 0.0625117 15.326C0.0805822 16.1984 0.247481 17.0613 0.556012 17.8775C0.812397 18.5805 1.22531 19.2161 1.76351 19.736C2.28529 20.272 2.92027 20.6845 3.62201 20.9435C4.43822 21.252 5.30112 21.4189 6.17351 21.437C7.28651 21.5 7.64351 21.5 10.4995 21.5C13.3555 21.5 13.7125 21.5 14.8255 21.437C15.6979 21.4189 16.5608 21.252 17.377 20.9435C18.08 20.6871 18.7156 20.2742 19.2355 19.736C19.7734 19.2137 20.1893 18.5791 20.4535 17.8775C20.7529 17.0591 20.9161 16.1972 20.9365 15.326C20.9365 14.213 20.9995 13.856 20.9995 11C20.9995 8.144 20.9995 7.787 20.9365 6.674ZM19.0465 15.2C19.0389 15.8665 18.9182 16.5269 18.6895 17.153C18.5219 17.61 18.2526 18.0228 17.902 18.3605C17.5614 18.7075 17.1494 18.9763 16.6945 19.148C16.0684 19.3766 15.408 19.4974 14.7415 19.505C13.6915 19.5575 13.303 19.568 10.5415 19.568C7.78001 19.568 7.39151 19.568 6.34151 19.505C5.64945 19.518 4.96034 19.4114 4.30451 19.19C3.86958 19.0095 3.47644 18.7414 3.14951 18.4025C2.801 18.0652 2.5351 17.6519 2.37251 17.195C2.11616 16.5599 1.97398 15.8845 1.95251 15.2C1.95251 14.15 1.88951 13.7615 1.88951 11C1.88951 8.2385 1.88951 7.85 1.95251 6.8C1.95722 6.11861 2.08161 5.44334 2.32001 4.805C2.50486 4.36181 2.78859 3.96674 3.14951 3.65C3.46852 3.28898 3.86276 3.00225 4.30451 2.81C4.94454 2.57905 5.61911 2.45833 6.29951 2.453C7.34951 2.453 7.73801 2.39 10.4995 2.39C13.261 2.39 13.6495 2.39 14.6995 2.453C15.366 2.46064 16.0264 2.58136 16.6525 2.81C17.1297 2.98708 17.5579 3.27499 17.902 3.65C18.2461 3.97254 18.515 4.36687 18.6895 4.805C18.9229 5.44438 19.0437 6.11937 19.0465 6.8C19.099 7.85 19.1095 8.2385 19.1095 11C19.1095 13.7615 19.099 14.15 19.0465 15.2ZM10.4995 5.6135C9.43461 5.61558 8.39422 5.93325 7.5098 6.52639C6.62538 7.11953 5.93661 7.96151 5.53053 8.94594C5.12445 9.93038 5.01927 11.0131 5.2283 12.0573C5.43732 13.1015 5.95116 14.0603 6.70489 14.8125C7.45862 15.5648 8.41842 16.0768 9.46301 16.2838C10.5076 16.4907 11.5901 16.3835 12.5738 15.9755C13.5574 15.5675 14.398 14.8771 14.9894 13.9915C15.5809 13.1059 15.8965 12.0649 15.8965 11C15.8979 10.2914 15.7592 9.58944 15.4883 8.9346C15.2175 8.27977 14.8198 7.68495 14.3182 7.18435C13.8167 6.68376 13.2211 6.28726 12.5657 6.01768C11.9103 5.74809 11.2081 5.61073 10.4995 5.6135ZM10.4995 14.4965C9.80797 14.4965 9.13196 14.2914 8.55696 13.9072C7.98196 13.523 7.53381 12.977 7.26917 12.3381C7.00452 11.6992 6.93528 10.9961 7.0702 10.3179C7.20511 9.63961 7.53812 9.01659 8.02711 8.5276C8.51611 8.03861 9.13912 7.7056 9.81738 7.57068C10.4956 7.43577 11.1987 7.50501 11.8376 7.76965C12.4765 8.0343 13.0225 8.48245 13.4067 9.05745C13.7909 9.63244 13.996 10.3085 13.996 11C13.996 11.4592 13.9056 11.9138 13.7299 12.3381C13.5541 12.7623 13.2966 13.1477 12.9719 13.4724C12.6472 13.7971 12.2618 14.0546 11.8376 14.2303C11.4133 14.4061 10.9587 14.4965 10.4995 14.4965Z"
    fill="white"/>
</svg>
