<svg width="21" height="22" viewBox="0 0 21 22" fill="none" xmlns="http://www.w3.org/2000/svg">
  <path
    d="M17.8906 18.3955H14.7809V13.5226C14.7809 12.3606 14.7573 10.8652 13.1604 10.8652C11.539 10.8652 11.2914 12.1296 11.2914 13.4369V18.3955H8.18164V8.375H11.1689V9.74088H11.2091C11.6265 8.95337 12.6415 8.12213 14.1579 8.12213C17.3088 8.12213 17.8915 10.1959 17.8915 12.8953L17.8906 18.3955ZM4.66939 7.00388C4.43215 7.00399 4.19723 6.95732 3.97805 6.86654C3.75888 6.77575 3.55976 6.64263 3.39209 6.4748C3.22443 6.30697 3.0915 6.10773 3.00093 5.88846C2.91036 5.6692 2.86392 5.43423 2.86426 5.197C2.86443 4.83981 2.97052 4.49069 3.16911 4.19379C3.3677 3.89689 3.64987 3.66555 3.97994 3.52901C4.31001 3.39248 4.67316 3.35689 5.02345 3.42675C5.37375 3.4966 5.69546 3.66876 5.94791 3.92146C6.20037 4.17416 6.37222 4.49604 6.44173 4.8464C6.51125 5.19676 6.4753 5.55987 6.33845 5.88981C6.2016 6.21975 5.96999 6.50169 5.67289 6.7C5.3758 6.8983 5.02658 7.00405 4.66939 7.00388ZM6.22864 18.3955H3.11014V8.375H6.22864V18.3955ZM19.4464 0.5H1.54914C0.692512 0.5 -0.000488281 1.17725 -0.000488281 2.01287V19.9871C-0.000488281 20.8236 0.692512 21.5 1.54914 21.5H19.4438C20.2995 21.5 20.9995 20.8236 20.9995 19.9871V2.01287C20.9995 1.17725 20.2995 0.5 19.4438 0.5H19.4464Z"
    fill="#F9F9F9"/>
</svg>
